<?xml version="1.0" standalone="no"?>
<!DOCTYPE svg PUBLIC "-//W3C//DTD SVG 20010904//EN"
 "http://www.w3.org/TR/2001/REC-SVG-20010904/DTD/svg10.dtd">
<svg version="1.0" xmlns="http://www.w3.org/2000/svg"
 width="800.000000pt" height="800.000000pt" viewBox="0 0 800.000000 800.000000"
 preserveAspectRatio="xMidYMid meet">
<metadata>
Created by potrace 1.14, written by Peter Selinger 2001-2017
</metadata>
<g transform="translate(0.000000,800.000000) scale(0.100000,-0.100000)"
fill="#000000" stroke="none">
<path d="M4600 7927 c0 -16 80 -169 146 -278 19 -31 34 -58 34 -61 0 -2 25
-49 55 -103 30 -55 55 -103 55 -106 0 -4 -30 2 -67 12 -38 11 -87 23 -110 29
-24 5 -60 17 -80 25 -21 8 -85 26 -143 40 -86 21 -238 65 -319 92 -26 9 82
-61 168 -109 20 -11 46 -30 59 -41 13 -12 26 -20 29 -19 2 2 7 1 11 -2 3 -3 1
-6 -4 -6 -37 0 -511 111 -533 125 -6 3 -11 3 -10 -2 0 -4 41 -39 92 -78 87
-67 432 -403 549 -536 l57 -64 -47 -23 c-26 -13 -78 -37 -117 -54 -107 -46
-134 -58 -215 -96 -114 -52 -240 -115 -237 -118 1 -1 74 -5 162 -8 221 -8 385
-17 385 -22 0 -19 -79 -119 -109 -138 -47 -30 -98 -45 -204 -60 -27 -4 -56 -9
-65 -10 -29 -5 -156 -27 -186 -31 -24 -4 -27 -3 -16 10 6 8 22 17 33 21 23 7
89 36 192 84 33 16 82 38 109 49 27 12 47 24 44 27 -3 3 -43 0 -89 -6 -46 -6
-115 -13 -153 -16 -38 -3 -72 -7 -76 -9 -3 -2 -40 -7 -81 -10 -41 -3 -107 -10
-147 -16 -108 -13 -105 -15 -80 29 12 20 32 51 45 68 13 17 23 34 23 38 0 4
16 28 35 54 46 62 48 66 60 84 26 42 131 194 136 198 4 3 21 30 40 60 18 30
41 64 51 74 27 29 23 49 -5 26 -11 -10 -66 -48 -234 -161 -155 -103 -173 -116
-206 -134 -16 -9 -79 -49 -140 -89 -124 -81 -157 -100 -157 -90 0 4 11 32 25
63 13 31 45 115 70 186 25 72 52 145 60 163 8 17 11 32 7 31 -7 0 -41 -52
-153 -231 -30 -48 -60 -87 -67 -88 -9 0 -10 5 -3 18 5 9 9 20 9 25 0 4 4 21 7
38 4 17 8 40 10 52 8 48 36 174 45 197 5 14 12 39 15 55 6 41 42 161 51 177 6
9 3 9 -9 -1 -18 -14 -107 -137 -107 -147 0 -3 -24 -40 -54 -82 -29 -43 -55
-82 -57 -88 -2 -5 -35 -57 -73 -115 -111 -167 -150 -228 -211 -329 -32 -52
-62 -98 -67 -101 -5 -3 -8 -8 -7 -10 2 -2 -17 -37 -42 -78 -24 -40 -57 -97
-73 -125 -16 -28 -34 -54 -40 -58 -6 -4 -8 -8 -3 -8 10 0 -23 -50 -34 -50 -14
0 -49 131 -55 206 -5 74 10 189 28 212 13 15 6 15 -29 0 -70 -30 -176 -110
-270 -202 l-101 -101 7 -43 c5 -23 7 -95 5 -160 -2 -114 -6 -165 -21 -287 -4
-33 -7 -67 -8 -75 -1 -17 -16 -116 -21 -143 -3 -17 -15 -208 -18 -282 -2 -39
-2 -40 -51 -52 -28 -6 -95 -23 -150 -37 -152 -39 -272 -51 -495 -50 -188 1
-279 8 -365 28 -33 8 -61 13 -63 11 -2 -1 21 -17 50 -33 53 -31 188 -147 188
-162 0 -16 -98 -32 -220 -36 -100 -4 -243 -11 -257 -14 -2 0 -3 -4 -3 -10 0
-5 21 -10 48 -10 26 0 66 -9 89 -20 42 -19 163 -125 163 -143 0 -5 8 -17 18
-26 21 -18 92 -134 92 -148 0 -6 7 -23 14 -39 8 -16 17 -43 20 -61 4 -18 10
-43 16 -57 5 -15 7 -26 4 -26 -2 0 0 -8 5 -17 5 -10 11 -31 14 -48 3 -16 8
-37 11 -45 8 -23 21 -112 30 -215 18 -187 21 -263 19 -450 -4 -326 -3 -543 2
-578 2 -18 7 -54 10 -82 3 -27 8 -57 11 -65 11 -39 -261 -145 -381 -149 -23
-1 -27 -4 -15 -11 22 -14 211 -4 300 15 14 3 36 7 50 10 14 3 36 7 50 10 23 5
27 1 48 -67 33 -102 119 -287 176 -377 15 -22 26 -43 26 -47 0 -9 122 -177
142 -195 10 -9 18 -21 18 -26 0 -5 21 -29 46 -53 l45 -45 -59 100 c-117 200
-184 374 -242 630 -6 28 -16 67 -21 88 -6 22 -9 40 -7 41 2 1 28 14 58 30 88
46 164 88 178 99 6 5 12 7 12 3 0 -4 11 1 25 10 14 9 25 12 25 8 0 -5 4 -4 8
2 16 25 200 87 322 109 19 4 43 9 52 11 15 4 17 0 14 -28 -7 -69 -46 -153 -97
-209 -70 -76 -74 -82 -54 -76 11 3 51 15 89 26 69 20 186 37 173 25 -3 -4 5
-27 20 -53 14 -25 44 -80 66 -121 22 -41 50 -88 62 -105 13 -16 40 -56 62 -87
58 -85 228 -270 305 -332 12 -10 32 -26 43 -35 19 -15 19 -15 5 4 -16 23 -74
86 -107 118 -13 11 -23 27 -23 34 0 7 -4 13 -8 13 -12 0 -104 144 -141 220
-31 64 -121 321 -121 346 0 10 6 11 23 5 12 -5 27 -10 32 -11 6 -1 28 -13 50
-26 55 -32 111 -108 188 -255 51 -96 59 -111 92 -156 35 -48 57 -64 99 -70 60
-9 135 -53 188 -110 108 -117 113 -120 173 -128 32 -4 69 -9 84 -11 35 -6 139
-58 176 -87 l29 -25 -59 -53 c-64 -59 -120 -117 -142 -149 -13 -19 -12 -20 19
-21 61 -2 114 -8 154 -18 76 -19 109 -29 134 -39 14 -5 29 -10 34 -10 5 0 12
-4 15 -9 3 -4 26 -18 51 -30 25 -12 56 -30 68 -40 75 -57 82 -65 77 -86 -3
-17 9 -33 59 -75 36 -29 75 -55 87 -57 12 -3 27 -9 32 -14 7 -7 17 -6 29 0 56
30 208 7 308 -45 119 -62 184 -125 244 -236 15 -29 90 -225 86 -225 -1 0 1
-12 5 -28 8 -30 3 -28 155 -52 147 -24 261 -69 400 -161 107 -71 286 -255 305
-314 4 -11 10 -20 14 -20 4 0 20 -27 36 -60 16 -33 32 -60 35 -60 4 0 6 42 4
93 -1 50 -5 313 -8 582 l-7 490 -23 22 c-38 35 -92 105 -110 143 -18 38 -33
178 -22 207 7 17 8 17 17 1 14 -26 23 -23 69 22 53 52 98 53 139 3 31 -38 37
-37 114 12 51 32 58 55 31 93 -14 20 -14 24 0 38 9 8 17 26 17 40 1 21 4 45 8
73 1 7 55 35 71 36 3 0 16 7 29 14 26 14 38 12 126 -19 33 -12 74 -23 90 -25
17 -2 33 -4 38 -4 4 -1 7 -7 7 -13 1 -24 40 -60 65 -60 13 0 31 6 39 13 8 8
33 25 55 39 44 26 50 44 26 76 -22 29 -18 47 19 76 22 18 40 45 51 77 17 53
18 53 145 106 146 61 180 82 245 154 36 40 118 121 168 166 16 14 18 26 12 78
-12 98 -56 195 -158 347 -110 164 -120 180 -155 255 -34 72 -56 189 -77 425
-7 76 -12 123 -20 165 -2 17 -7 52 -10 79 -4 28 -8 53 -11 58 -3 4 15 17 38
29 24 12 44 23 46 24 11 10 24 230 14 249 -3 5 -7 43 -9 85 -3 69 -1 78 18 91
77 53 84 71 52 137 -21 44 -51 59 -92 45 l-30 -10 -26 66 -26 67 41 35 c42 37
48 56 29 93 -17 33 -61 77 -77 77 -15 0 -67 -27 -94 -48 -19 -16 -42 -7 -100
42 -20 17 -55 45 -77 61 -46 35 -66 74 -62 125 3 51 -22 66 -208 119 -14 4
-34 19 -44 33 -38 51 1 163 68 198 17 8 32 18 35 21 3 3 20 11 38 19 l34 13
-33 14 c-30 12 -166 52 -199 57 -8 1 -41 10 -72 20 -57 16 -58 17 -58 54 0 21
5 43 12 50 7 7 8 12 4 12 -30 0 308 379 338 380 6 0 27 16 46 35 19 19 41 35
49 35 8 0 11 3 8 6 -9 9 -92 -24 -107 -42 -7 -7 -21 -14 -31 -14 -18 0 -17 2
3 25 12 14 25 25 29 25 4 0 22 13 38 28 17 16 78 57 136 93 58 35 105 67 105
71 0 10 -87 -2 -142 -18 -29 -9 -21 20 10 33 15 7 68 34 117 60 82 45 170 85
187 87 4 1 13 7 20 14 9 9 7 12 -13 13 -34 1 -47 4 -139 33 -46 14 -89 26 -96
26 -7 0 -16 5 -20 11 -5 8 24 10 105 7 61 -3 111 -4 111 -3 0 1 -34 15 -76 29
-88 32 -262 121 -337 173 -71 49 -150 106 -164 118 -7 5 -19 15 -26 22 -8 6
-58 39 -110 73 -52 33 -98 66 -101 73 -3 7 -17 30 -30 52 -13 22 -35 61 -49
86 -33 63 -196 316 -214 334 -8 8 -11 15 -8 15 4 0 -7 18 -24 39 -17 21 -31
42 -31 45 0 4 -5 12 -11 19 -6 7 -40 57 -76 112 -46 71 -63 91 -59 70 3 -16 8
-48 11 -70 3 -23 7 -50 9 -60 2 -11 7 -55 10 -98 4 -44 11 -89 16 -102 5 -13
7 -25 5 -27 -3 -2 0 -31 5 -64 17 -105 19 -134 9 -134 -5 0 -9 5 -9 10 0 6 -5
10 -10 10 -6 0 -45 23 -88 52 -42 28 -100 66 -127 85 -28 18 -55 33 -62 33 -6
0 -13 4 -15 9 -1 4 -59 45 -128 89 -69 45 -143 94 -165 110 -22 15 -80 57
-130 92 -49 35 -105 77 -122 94 -18 16 -33 27 -33 23z m-30 -1913 c-18 -47
-39 -68 -79 -80 -22 -6 -42 -9 -45 -6 -8 8 14 32 29 32 8 0 15 3 17 8 3 7 80
72 85 72 1 0 -2 -12 -7 -26z m-2059 -56 c30 -60 37 -98 26 -148 -9 -41 -88
-273 -103 -303 -15 -27 -16 -97 -2 -97 18 0 0 -99 -29 -157 -40 -77 -62 -103
-88 -103 -40 0 -47 14 -42 76 3 33 6 59 7 59 0 0 3 24 6 54 2 29 18 105 34
170 29 112 152 511 157 511 2 0 17 -28 34 -62z m2042 -418 c18 0 22 -17 9 -37
-6 -9 -18 -10 -47 -2 -87 23 -115 32 -115 38 0 3 30 5 67 4 38 -1 76 -2 86 -3z
m381 -102 c3 -13 6 -43 6 -67 0 -37 -2 -42 -17 -36 -10 4 -28 10 -40 12 -30 7
-29 24 2 73 29 46 40 50 49 18z m326 -80 c0 -6 -7 -18 -15 -27 -9 -9 -28 -31
-43 -49 l-28 -34 -77 24 c-74 22 -97 37 -59 39 42 2 152 29 182 45 31 17 40
17 40 2z m-2182 -641 c21 -17 31 -50 25 -81 -5 -26 -8 -27 -42 -21 -46 8 -202
86 -198 99 2 5 18 15 37 21 38 13 156 1 178 -18z m-1332 -1095 c20 -13 35 -53
40 -105 3 -28 9 -56 15 -63 9 -11 82 -10 101 2 17 11 6 -23 -42 -119 -80 -164
-118 -224 -208 -321 -53 -58 -67 -66 -58 -35 4 13 9 33 11 44 3 11 13 56 24
100 18 72 27 120 35 180 2 11 6 38 10 60 4 22 8 56 10 75 4 35 15 112 21 140
2 8 4 23 4 33 1 18 18 22 37 9z m-175 -294 c1 -13 0 -27 -1 -33 -1 -5 -5 -82
-7 -170 -2 -88 -4 -167 -5 -175 -1 -19 -28 -51 -39 -45 -7 5 -6 62 6 215 6 75
8 90 20 165 4 22 7 46 8 53 1 22 17 13 18 -10z m4597 -120 c23 -22 42 -38 42
-34 0 9 147 -110 173 -139 9 -11 27 -37 38 -58 20 -37 20 -39 2 -53 -10 -7
-22 -14 -26 -14 -14 0 -92 -57 -131 -95 -38 -37 -52 -42 -58 -24 -2 6 -25 13
-51 16 -39 5 -50 11 -61 32 -8 14 -24 35 -35 45 -21 19 -23 20 -76 1 -88 -29
-103 -58 -69 -130 21 -47 22 -51 6 -63 -47 -35 -50 -41 -57 -114 l-7 -73 -76
-49 -77 -48 -53 13 c-30 7 -57 19 -60 28 -8 22 -40 51 -57 51 -8 0 -35 -10
-61 -22 l-46 -23 -29 33 c-17 19 -30 45 -30 62 -1 17 -2 36 -3 43 -3 21 15 80
30 95 12 12 11 16 -10 33 -22 17 -23 21 -12 54 22 62 45 81 135 109 46 15 143
56 215 93 72 36 141 71 153 77 13 6 23 14 23 19 0 4 5 7 11 7 7 0 31 16 55 35
23 19 45 35 48 35 4 0 28 22 54 50 26 27 49 49 53 50 3 0 24 -19 47 -42z"/>
<path d="M1633 992 c-26 -4 -31 -16 -38 -107 -8 -99 -15 -183 -20 -235 -3 -25
-7 -74 -10 -110 -8 -110 -15 -163 -24 -174 -11 -13 5 -60 17 -52 5 3 18 -1 28
-8 14 -11 22 -12 33 -3 17 14 81 16 81 2 0 -5 4 -3 10 5 8 12 10 12 16 -3 6
-17 7 -17 20 0 13 17 14 17 8 1 -3 -10 -2 -18 4 -18 5 0 12 10 16 23 4 15 9
18 14 10 4 -6 20 -10 35 -9 30 4 33 -3 15 -24 -7 -8 0 -4 15 10 23 20 27 21
21 6 -5 -13 -4 -17 4 -13 6 4 13 -1 16 -10 4 -14 4 -14 3 2 -1 11 3 20 8 20 6
0 9 -3 8 -6 -1 -3 4 -6 12 -6 8 0 12 4 9 9 -10 16 9 8 22 -9 10 -15 15 -16 26
-5 11 11 10 12 -4 7 -11 -5 -18 -2 -18 5 0 8 10 11 28 8 27 -4 27 -3 29 52 1
30 2 86 4 123 2 65 -6 86 -32 87 -7 0 -28 -46 -33 -71 -7 -30 -28 -79 -35 -79
-4 0 -7 11 -7 25 0 14 4 25 9 25 5 0 4 6 -2 14 -9 11 -9 16 0 21 8 6 7 10 -2
16 -11 7 -11 9 1 9 13 0 13 1 0 10 -11 7 -11 10 -2 10 8 0 10 5 5 13 -13 21
-12 39 2 33 9 -3 12 0 8 9 -3 8 -8 13 -12 11 -3 -2 -6 9 -6 24 -1 16 3 26 7
24 10 -7 10 10 1 20 -11 11 -11 86 0 86 6 0 6 5 1 13 -14 19 -10 52 6 49 11
-1 9 2 -3 12 -18 14 -18 14 0 19 17 4 17 5 -1 6 -15 1 -16 4 -6 16 7 8 8 15 3
15 -5 0 -10 7 -10 15 0 8 4 15 8 15 14 0 18 30 4 43 -20 20 -119 21 -135 2
-10 -12 -10 -18 0 -30 19 -22 18 -564 -1 -575 -18 -11 -17 -12 -22 43 -3 31
-1 47 7 47 6 0 6 4 -3 9 -7 5 -14 23 -16 40 -2 26 0 31 14 27 13 -5 13 -4 -1
8 -19 14 -26 42 -8 31 5 -3 3 7 -5 22 -10 19 -11 29 -4 34 7 4 7 9 2 12 -5 3
-9 24 -8 47 1 23 -3 40 -9 40 -6 0 -4 5 4 10 9 6 10 10 3 10 -8 0 -11 15 -10
40 2 23 -1 46 -5 53 -4 6 -2 15 5 19 9 6 9 8 0 8 -7 0 -13 5 -13 11 0 5 6 7
13 3 9 -6 9 -4 1 7 -6 8 -10 22 -9 32 2 9 -1 17 -6 17 -5 0 -8 3 -8 8 6 37
-20 52 -78 44z"/>
<path d="M2520 992 c-19 -2 -38 -6 -42 -10 -8 -8 -13 -52 -33 -287 -3 -33 -7
-78 -9 -100 -3 -22 -7 -80 -11 -130 -4 -49 -11 -97 -16 -106 -9 -17 10 -52 26
-49 6 2 21 2 35 1 20 -1 22 -3 10 -11 -12 -7 -10 -9 8 -7 15 1 21 6 17 15 -4
10 0 12 11 8 8 -3 18 -6 20 -6 3 0 2 -6 -1 -12 -4 -7 -1 -6 7 3 13 16 43 15
33 -1 -3 -5 7 -7 22 -5 15 1 29 8 31 14 3 8 11 6 25 -6 16 -13 18 -14 9 -2
-11 15 -8 16 24 15 19 -1 39 -8 44 -15 6 -11 8 -11 12 -1 2 8 12 14 21 16 9 1
15 -2 11 -7 -3 -5 -10 -7 -15 -4 -5 4 -9 1 -9 -4 0 -15 15 -14 29 3 13 16 11
76 -2 76 -5 0 -3 8 4 17 10 12 11 15 1 9 -9 -6 -11 -1 -8 18 3 14 0 26 -5 26
-6 0 -7 5 -4 10 13 21 22 8 34 -53 7 -35 16 -70 21 -78 9 -14 13 -15 53 -18
18 -1 19 -3 7 -11 -10 -7 -11 -10 -2 -10 7 0 17 11 22 24 5 13 15 26 22 29 10
4 10 6 1 6 -7 1 -13 8 -13 16 0 8 6 15 13 15 8 0 7 4 -3 10 -13 9 -13 11 0 20
10 6 11 10 3 10 -7 0 -13 5 -13 11 0 5 4 8 8 5 4 -2 8 6 8 19 0 13 -4 21 -8
19 -4 -3 -8 -1 -8 5 0 5 6 12 13 14 10 4 10 6 0 6 -7 1 -13 8 -13 16 0 9 6 12
18 9 16 -5 16 -5 0 6 -18 11 -26 36 -9 26 5 -4 8 2 6 11 -2 10 -4 18 -5 18 -1
0 -3 8 -5 18 -2 9 1 15 5 12 5 -3 12 0 16 6 4 7 3 9 -4 5 -6 -3 -14 -1 -18 5
-3 6 0 15 7 20 10 6 11 9 2 9 -7 0 -13 5 -13 11 0 5 6 7 13 3 9 -6 9 -4 1 7
-13 17 -13 168 0 188 6 10 6 12 -2 7 -7 -4 -12 -3 -12 3 0 5 6 12 13 14 10 4
10 6 0 6 -15 1 -18 41 -3 41 16 0 11 37 -6 44 -9 3 -33 6 -54 6 -21 0 -45 -3
-54 -6 -18 -7 -22 -39 -6 -49 6 -3 10 -20 10 -37 0 -37 -9 -32 -16 8 -12 65
-26 79 -77 80 -57 1 -91 -21 -63 -41 14 -11 16 -46 16 -292 0 -154 -3 -282 -6
-286 -10 -9 -34 4 -34 19 0 8 6 14 13 14 8 0 7 4 -3 10 -13 9 -13 11 0 20 11
7 12 10 2 10 -8 0 -13 10 -12 23 1 12 1 24 0 27 -5 15 -10 53 -15 115 -3 39
-6 85 -8 103 -2 18 2 32 7 32 7 0 8 3 1 8 -9 7 -14 18 -20 52 -1 8 3 21 9 29
8 11 8 13 -1 7 -7 -4 -13 -3 -13 1 0 5 6 15 13 22 10 11 10 13 0 7 -7 -4 -13
-3 -13 1 0 5 6 15 13 22 7 9 7 11 1 8 -17 -9 -25 18 -11 33 9 10 9 11 0 6 -9
-5 -13 1 -13 17 0 32 -17 43 -60 39z m85 -682 c3 -5 1 -10 -4 -10 -6 0 -11 5
-11 10 0 6 2 10 4 10 3 0 8 -4 11 -10z"/>
<path d="M3302 989 c-12 -5 -22 -16 -23 -26 0 -18 -2 -36 -14 -178 -3 -38 -8
-97 -11 -130 -2 -33 -6 -80 -9 -105 -2 -25 -7 -76 -11 -115 -3 -38 -10 -76
-16 -82 -15 -19 6 -40 42 -41 17 0 40 -4 51 -7 15 -5 19 -4 15 4 -9 13 -4 14
28 2 17 -7 26 -7 30 2 2 7 5 3 6 -8 1 -19 1 -19 11 -2 8 14 14 15 24 7 9 -8
15 -8 20 0 3 6 11 8 16 5 11 -8 7 38 -5 46 -5 4 -9 34 -10 68 -1 34 -5 61 -10
61 -5 0 -2 8 5 17 10 11 10 14 2 9 -8 -4 -13 -1 -13 9 0 10 5 13 13 9 8 -6 8
-3 -2 9 -7 9 -11 24 -7 32 3 8 1 15 -3 15 -15 0 -7 65 9 72 12 5 12 7 -2 7
-10 1 -18 7 -19 14 -5 63 -4 84 5 96 9 12 8 13 -3 7 -9 -6 -12 -5 -9 5 3 8 1
24 -3 37 -7 17 -6 21 4 16 9 -5 9 -4 0 7 -7 7 -13 20 -13 28 0 14 1 14 10 1 6
-9 10 -10 10 -3 0 6 -5 15 -10 18 -8 5 -7 12 2 23 9 11 9 14 1 9 -8 -5 -15 3
-21 25 -6 25 -15 34 -38 39 -17 3 -40 2 -52 -2z"/>
<path d="M863 973 c-3 -8 -1 -24 5 -36 16 -35 13 -558 -4 -577 -19 -22 -3 -42
37 -46 19 -2 43 -7 54 -11 35 -12 44 -11 38 3 -3 8 0 14 6 14 12 0 15 33 4 44
-4 4 -9 18 -11 33 -2 21 0 24 15 19 15 -5 15 -4 -2 9 -16 13 -18 19 -7 35 6
11 12 23 12 27 0 5 -4 2 -9 -6 -6 -9 -9 1 -9 28 -1 24 3 39 9 36 5 -4 7 -10 4
-15 -3 -4 1 -12 8 -18 15 -12 47 -12 47 1 0 5 8 16 18 24 9 8 11 11 4 8 -11
-6 -13 3 -11 37 2 24 -1 49 -5 56 -4 8 -1 12 11 12 11 0 14 3 7 8 -11 7 -24
91 -14 90 29 -2 35 5 35 42 0 22 -4 40 -9 40 -4 0 -3 7 4 15 9 11 9 15 1 15
-9 0 -9 5 0 21 9 17 8 20 -2 14 -9 -6 -11 -2 -7 13 4 12 2 22 -3 22 -5 0 -9
11 -9 24 0 32 -15 36 -123 34 -67 0 -90 -4 -94 -15z m163 -160 c5 -20 -14 -53
-31 -53 -9 0 -1 34 10 42 6 5 5 8 -3 8 -8 0 -11 11 -10 31 2 28 3 29 16 12 7
-10 15 -28 18 -40z"/>
<path d="M1113 983 c-15 -5 -18 -43 -3 -43 13 0 13 -567 0 -575 -12 -7 -14
-44 -2 -46 41 -7 60 -10 75 -10 9 0 15 -4 13 -8 -3 -4 1 -8 9 -8 8 0 13 3 10
5 -3 3 5 11 18 17 18 10 27 9 46 -2 13 -8 21 -11 18 -7 -3 5 5 9 18 9 12 0 21
-5 18 -10 -2 -6 7 -11 19 -12 16 -2 19 0 10 6 -10 6 -8 10 10 16 12 4 26 7 30
6 7 -1 -11 49 -22 59 -9 9 -8 110 1 110 8 0 12 -19 12 -62 0 -10 4 -18 8 -18
5 0 9 -9 9 -19 0 -11 5 -32 12 -48 6 -15 10 -32 9 -38 -1 -5 3 -5 10 2 9 9 18
8 38 -5 25 -16 26 -16 11 3 -8 11 -10 17 -6 13 5 -4 16 -2 24 5 13 10 14 9 8
-10 -4 -12 -3 -24 2 -27 10 -6 10 60 0 70 -4 3 -3 16 2 29 5 14 5 26 -2 33 -6
6 -6 12 3 17 8 6 10 4 4 -5 -5 -9 -4 -11 4 -6 9 6 9 11 -1 23 -14 17 -12 51 4
71 8 9 6 11 -8 6 -16 -6 -17 -5 -6 7 14 15 16 33 3 25 -10 -7 -9 20 2 30 4 4
1 14 -6 22 -10 13 -9 15 7 9 15 -6 17 -5 8 6 -9 10 -8 17 1 26 9 10 8 11 -7 5
-15 -6 -17 -4 -10 7 13 21 14 39 1 39 -7 0 -6 4 2 9 12 8 12 12 2 24 -10 13
-9 17 5 25 15 8 15 10 -1 16 -14 5 -15 9 -5 21 7 8 8 15 3 15 -6 0 -8 12 -6
28 2 15 4 35 4 44 0 11 6 15 17 11 10 -3 8 2 -6 12 -18 13 -21 20 -11 31 6 7
16 11 21 8 6 -4 5 2 -1 14 -18 34 -111 45 -141 17 -15 -14 -18 -14 -23 -1 -4
10 -19 13 -59 10 -29 -2 -57 -3 -63 -3 -5 0 -37 2 -70 4 -33 1 -66 1 -72 -2z
m303 -90 c3 -35 2 -36 -7 -13 -6 14 -13 36 -15 50 -4 20 -3 22 7 13 7 -7 14
-29 15 -50z m-145 35 c5 -65 2 -544 -3 -559 -6 -17 -10 -18 -22 -7 -11 10 -11
16 -2 27 8 12 8 13 -1 7 -7 -4 -13 -2 -13 3 0 6 6 11 13 12 10 0 10 2 0 6 -7
2 -13 9 -13 14 0 6 4 8 8 5 5 -3 9 1 9 9 0 8 -4 12 -8 10 -9 -6 -6 16 5 34 6
10 5 12 -3 7 -15 -10 -11 25 4 36 6 5 5 8 -3 8 -10 0 -10 5 -1 21 9 17 8 20
-3 14 -10 -6 -11 -5 0 6 6 7 12 18 12 24 0 5 -5 3 -10 -5 -8 -13 -10 -12 -10
3 0 9 6 17 13 17 8 0 7 4 -3 10 -13 9 -13 11 0 20 10 6 11 10 3 10 -7 0 -13 5
-13 11 0 5 4 8 8 5 5 -3 9 1 9 9 0 8 -4 12 -8 10 -9 -6 -6 16 5 34 6 10 5 12
-3 7 -15 -10 -11 25 4 36 6 5 5 8 -3 8 -10 0 -10 5 -1 21 9 17 8 20 -3 14 -10
-6 -11 -5 0 6 6 7 12 18 12 23 0 6 -5 4 -10 -4 -8 -13 -10 -12 -10 3 0 9 6 17
13 17 8 0 7 4 -3 10 -12 8 -13 11 -1 19 11 7 11 9 0 13 -17 6 -4 38 16 38 8 0
15 -6 16 -12z m106 -420 c-3 -8 -6 -5 -6 6 -1 11 2 17 5 13 3 -3 4 -12 1 -19z"/>
<path d="M2183 983 c-15 -5 -17 -39 -4 -47 11 -7 12 -566 1 -566 -12 0 -19
-25 -11 -39 7 -11 40 -20 84 -24 9 -1 17 -4 17 -7 0 -4 6 -7 14 -7 8 0 12 6 8
15 -3 10 -1 13 6 8 7 -4 12 -2 12 4 0 6 4 9 8 6 10 -6 8 42 -3 51 -4 5 -5 2 0
-6 5 -9 4 -12 -3 -8 -12 8 -11 25 2 46 6 10 5 12 -2 7 -8 -5 -12 1 -12 14 0
13 4 19 12 14 7 -5 8 -3 2 7 -5 8 -10 34 -11 59 -1 34 1 40 7 23 5 -12 17 -26
28 -32 16 -8 21 -6 32 14 7 13 18 22 24 19 6 -3 2 2 -8 10 -11 9 -14 16 -7 16
7 0 10 4 7 9 -4 5 0 12 6 14 9 4 8 6 -2 6 -9 1 -16 10 -16 21 0 12 5 19 12 16
13 -5 13 19 -1 31 -4 4 -5 2 0 -6 6 -10 4 -12 -4 -7 -8 6 -9 12 -2 20 6 7 8
15 5 19 -3 3 -7 17 -8 32 -3 19 0 25 10 21 8 -3 13 -2 12 2 -1 4 2 15 7 25 4
10 5 21 1 24 -3 4 2 15 11 25 13 14 14 19 3 16 -9 -2 -14 6 -14 24 -1 14 -4
30 -8 33 -4 4 -3 17 3 28 8 14 8 18 0 13 -7 -5 -11 2 -11 16 0 42 -11 46 -105
46 -50 -1 -96 -3 -102 -5z m150 -170 c3 -19 -2 -33 -20 -52 -20 -20 -23 -22
-16 -6 5 11 9 39 8 62 -1 32 2 40 11 32 6 -5 14 -21 17 -36z"/>
<path d="M2954 973 c-12 -12 -20 -87 -15 -130 1 -7 -3 -22 -9 -32 -7 -14 -7
-22 1 -27 8 -4 7 -9 -2 -15 -9 -5 -5 -11 16 -21 22 -10 29 -10 33 0 2 7 7 10
10 8 4 -2 8 11 9 30 1 18 6 41 11 50 6 11 10 -69 11 -224 1 -160 -1 -242 -8
-247 -15 -9 -14 -45 2 -47 6 0 17 -2 22 -3 6 -2 16 -3 23 -4 7 0 11 -5 8 -9
-3 -5 1 -9 9 -9 8 0 12 4 10 7 -3 4 6 8 20 8 15 0 22 -5 19 -12 -3 -6 2 -2 10
8 18 22 21 52 6 61 -5 3 -10 12 -10 18 0 7 4 6 10 -3 6 -9 10 -10 10 -3 0 6
-4 15 -10 18 -5 3 -10 11 -10 16 0 6 5 7 10 4 6 -3 10 -1 10 4 0 6 -4 11 -10
11 -5 0 -10 5 -10 11 0 5 5 7 12 3 7 -5 8 -3 3 7 -16 25 -13 50 4 44 12 -4 12
-2 -2 9 -12 9 -15 16 -7 21 8 5 8 11 1 19 -7 9 -7 17 2 26 9 10 9 11 0 6 -16
-9 -16 -1 -2 26 8 15 8 19 0 14 -6 -4 -11 -3 -11 3 0 5 6 12 13 14 10 4 10 6
0 6 -7 1 -13 6 -13 12 0 5 5 7 10 4 6 -3 10 -1 10 4 0 6 -4 11 -10 11 -5 0
-10 5 -10 11 0 5 4 8 9 5 10 -7 9 20 -2 30 -12 12 -8 26 5 18 7 -5 8 -3 2 7
-12 20 -14 40 -3 33 5 -3 9 0 9 5 0 6 -4 11 -8 11 -4 0 -8 12 -9 28 l-1 27 13
-30 c8 -16 14 -38 15 -47 0 -18 33 -33 50 -23 5 3 10 21 10 40 0 18 6 36 13
38 6 3 3 6 -8 6 -17 1 -17 3 -5 11 12 8 12 10 1 10 -10 0 -11 3 -2 14 8 10 9
16 1 21 -5 3 -10 21 -10 40 0 56 -17 64 -136 63 -77 -1 -110 -5 -120 -15z"/>
<path d="M3507 967 c-41 -37 -54 -129 -33 -223 6 -28 44 -103 67 -133 23 -28
24 -41 5 -41 -7 0 -30 -19 -51 -41 -36 -40 -37 -44 -31 -95 6 -53 29 -104 48
-104 5 0 7 -4 4 -8 -2 -4 7 -9 22 -10 15 -1 29 -7 30 -13 3 -6 8 -6 17 1 10 8
15 8 21 -1 5 -8 3 -9 -6 -4 -9 5 -11 4 -6 -4 10 -15 27 -4 20 14 -4 10 0 13
15 10 13 -2 22 3 26 16 4 10 11 19 17 19 6 0 5 -7 -3 -17 -8 -9 -9 -14 -2 -10
6 4 13 4 16 0 2 -5 3 -3 1 3 -1 6 3 17 9 24 9 10 9 11 0 6 -7 -4 -13 -2 -13 3
0 6 4 11 8 11 5 0 7 14 6 30 -1 17 2 32 6 35 4 3 4 21 0 40 -4 19 -5 33 -1 30
4 -2 8 2 8 10 0 8 -4 12 -9 9 -7 -4 -13 34 -9 59 0 4 -3 7 -9 7 -5 0 -10 5
-10 10 0 6 -11 28 -25 51 -14 22 -23 45 -19 51 4 6 3 8 -3 5 -6 -4 -13 -1 -16
6 -3 8 4 19 15 26 17 10 22 9 33 -6 13 -16 14 -15 9 12 -3 22 -2 26 5 15 9
-13 12 -13 23 -1 11 12 10 13 -2 7 -8 -4 -6 0 4 8 15 12 16 16 5 16 -12 0 -12
2 0 9 11 7 11 10 0 15 -11 5 -11 7 -1 12 6 3 12 10 12 15 0 6 -4 7 -10 4 -6
-4 -10 5 -10 20 0 33 -26 85 -54 107 -31 26 -99 23 -129 -5z m78 -447 c3 -5 1
-10 -4 -10 -6 0 -11 5 -11 10 0 6 2 10 4 10 3 0 8 -4 11 -10z m2 -85 c0 -8 -4
-12 -9 -9 -4 3 -8 9 -8 15 0 5 4 9 8 9 5 0 9 -7 9 -15z"/>
<path d="M3703 976 c-11 -16 -10 -30 1 -38 5 -3 11 -12 12 -20 1 -7 14 -71 29
-143 22 -102 28 -161 29 -272 2 -78 -1 -140 -5 -137 -11 6 -20 -12 -14 -28 3
-7 15 -19 26 -26 14 -9 19 -10 14 -2 -6 9 -2 9 14 1 16 -9 21 -9 21 0 0 8 4 8
15 -1 8 -7 15 -9 15 -4 0 4 7 -1 15 -12 13 -18 14 -18 8 5 -4 17 -3 22 5 17 7
-4 12 -2 12 4 0 6 4 8 10 5 11 -7 2 23 -12 42 -5 7 -5 14 2 18 5 3 10 12 10
18 0 7 -4 6 -10 -3 -8 -12 -10 -9 -10 13 0 20 4 26 13 21 9 -6 9 -5 1 7 -7 8
-11 39 -10 69 1 30 -2 67 -6 82 -4 17 -2 30 4 34 6 4 8 3 5 -3 -3 -5 0 -10 8
-10 12 0 12 3 3 15 -14 16 -19 54 -6 46 4 -3 8 0 8 6 0 6 4 8 10 5 6 -3 7 1 3
10 -5 13 -7 14 -14 3 -7 -11 -9 -11 -9 1 0 8 8 20 18 28 9 8 11 12 5 8 -8 -4
-13 0 -13 10 0 9 5 13 10 10 6 -3 10 -1 10 4 0 6 -5 11 -11 11 -5 0 -7 5 -4
10 5 8 11 7 21 -1 12 -10 12 -7 -1 17 -13 26 -13 29 3 36 9 4 11 7 5 7 -16 1
-12 22 7 39 13 12 12 13 -5 8 -20 -6 -20 -6 -1 9 11 8 14 15 8 15 -7 0 -12 5
-12 11 0 6 6 9 13 6 15 -5 17 28 4 49 -9 15 -245 16 -254 0z m142 -64 c1 -13
-3 -26 -8 -29 -6 -4 -8 4 -5 20 3 15 1 28 -4 31 -5 2 -3 3 3 2 7 -1 13 -12 14
-24z"/>
<path d="M4088 973 c-8 -10 -7 -18 5 -31 16 -18 23 -57 32 -177 3 -38 7 -86
10 -105 4 -33 7 -63 20 -222 9 -102 14 -118 43 -130 38 -15 53 -18 46 -7 -3 5
2 9 11 9 9 0 14 -4 11 -8 -3 -5 1 -9 9 -9 13 0 12 4 -2 19 -9 10 -11 18 -5 18
7 0 9 7 5 17 -4 11 -3 14 5 9 7 -4 12 -3 12 3 0 5 -6 11 -12 14 -10 3 -9 8 2
22 8 10 10 16 4 12 -6 -3 -11 1 -11 9 0 9 6 13 14 10 8 -3 12 -2 9 2 -9 15
-15 62 -7 62 4 0 6 20 5 45 -1 25 2 47 7 51 6 4 6 11 -1 19 -8 10 -8 15 1 21
8 5 9 3 4 -6 -5 -9 -4 -11 3 -6 9 5 9 13 2 27 -8 14 -7 19 1 19 8 0 8 4 -1 15
-8 10 -9 15 -2 15 7 0 9 7 5 17 -5 12 -3 14 8 8 11 -6 12 -5 2 6 -19 19 -16
34 4 18 15 -13 15 -12 0 17 -15 28 -15 32 1 49 9 10 11 15 5 11 -7 -4 -13 -2
-13 3 0 6 5 11 10 11 7 0 7 7 -1 21 -8 17 -8 20 1 14 9 -5 10 -1 5 15 -5 15
-4 20 4 16 6 -4 11 -3 11 3 0 5 -6 11 -12 14 -10 3 -10 8 1 21 13 16 15 16 23
1 15 -26 12 -549 -3 -573 -10 -17 -10 -23 1 -37 7 -8 20 -15 29 -14 37 3 52
-2 61 -24 6 -16 9 -18 9 -5 1 12 7 16 19 12 14 -5 14 -4 2 4 -8 6 -18 8 -24 5
-5 -3 -6 -1 -2 5 3 6 15 9 26 7 14 -3 20 2 20 13 1 15 2 15 10 1 5 -9 23 -16
41 -17 18 0 35 -4 38 -9 3 -4 12 -9 20 -11 12 -3 12 -1 0 14 -13 16 -12 17 6
7 15 -9 22 -8 33 5 9 12 11 13 6 2 -4 -8 -3 -12 1 -7 12 10 13 56 1 54 -13 -3
-14 34 -1 52 7 11 7 13 -2 8 -9 -6 -11 1 -8 23 2 18 -1 30 -8 30 -7 0 -6 4 3
9 8 6 18 7 24 4 5 -3 6 -1 2 6 -4 6 -12 9 -17 6 -5 -4 -9 1 -9 10 0 10 5 14
13 9 9 -5 9 -4 0 6 -10 11 -9 16 5 27 16 14 16 14 0 9 -12 -3 -18 0 -18 10 0
9 5 12 13 8 9 -6 9 -4 -1 8 -10 13 -10 17 0 21 10 4 10 6 1 6 -7 1 -13 13 -13
29 0 21 2 24 10 12 6 -9 10 -10 10 -3 0 6 -4 15 -10 18 -5 3 -10 11 -10 16 0
6 5 7 11 3 8 -5 8 -1 0 13 -7 14 -7 24 2 33 9 10 9 11 0 6 -9 -5 -11 2 -8 24
2 18 -1 30 -8 30 -7 0 -6 4 3 9 8 6 18 7 24 4 5 -3 6 -1 2 6 -4 6 -12 9 -17 6
-5 -4 -9 -1 -9 4 0 6 6 11 13 11 8 0 8 3 -2 9 -12 8 -12 12 3 26 16 17 16 19
-3 37 -21 19 -28 34 -12 24 12 -8 22 20 14 39 -4 12 -19 15 -57 14 -74 -2 -86
-7 -86 -35 0 -13 4 -24 9 -24 5 0 8 -125 8 -280 0 -220 -3 -283 -13 -291 -16
-13 -30 11 -20 36 3 8 0 15 -7 16 -7 0 -3 4 8 9 18 8 18 9 2 9 -17 1 -17 2 -3
17 20 19 21 31 2 15 -11 -9 -13 -4 -9 31 2 24 5 51 7 61 2 9 -1 17 -7 18 -7 0
-3 4 8 9 18 8 18 9 2 9 -17 1 -17 2 -3 17 20 19 21 31 2 15 -11 -9 -13 -4 -9
31 2 24 5 51 7 61 2 9 -1 17 -7 18 -7 0 -3 4 8 9 18 8 18 9 2 9 -17 1 -17 2
-3 17 20 20 21 31 1 14 -12 -10 -14 -8 -11 7 2 10 5 59 7 108 l4 90 -60 2
c-33 0 -65 -3 -72 -8 -7 -6 -13 -6 -17 0 -10 16 -244 10 -258 -6z m139 -65
c-3 -8 -6 -5 -6 6 -1 11 2 17 5 13 3 -3 4 -12 1 -19z m433 -12 c0 -3 -4 -8
-10 -11 -5 -3 -10 -1 -10 4 0 6 5 11 10 11 6 0 10 -2 10 -4z"/>
<path d="M1532 840 c0 -14 2 -19 5 -12 2 6 2 18 0 25 -3 6 -5 1 -5 -13z"/>
<path d="M4327 779 c7 -7 15 -10 18 -7 3 3 -2 9 -12 12 -14 6 -15 5 -6 -5z"/>
<path d="M4315 579 c-4 -6 -5 -12 -2 -15 2 -3 7 2 10 11 7 17 1 20 -8 4z"/>
<path d="M3706 397 c3 -10 9 -15 12 -12 3 3 0 11 -7 18 -10 9 -11 8 -5 -6z"/>
<path d="M2910 300 c0 -5 5 -10 11 -10 5 0 7 5 4 10 -3 6 -8 10 -11 10 -2 0
-4 -4 -4 -10z"/>
<path d="M3650 299 c0 -5 5 -7 10 -4 6 3 10 8 10 11 0 2 -4 4 -10 4 -5 0 -10
-5 -10 -11z"/>
<path d="M937 289 c7 -7 15 -10 18 -7 3 3 -2 9 -12 12 -14 6 -15 5 -6 -5z"/>
<path d="M1653 285 c0 -8 4 -12 9 -9 5 3 6 10 3 15 -9 13 -12 11 -12 -6z"/>
<path d="M3824 282 c4 -3 14 -7 22 -8 9 -1 13 0 10 4 -4 3 -14 7 -22 8 -9 1
-13 0 -10 -4z"/>
</g>
</svg>
